<svg width="13" height="14" viewBox="0 0 13 14" fill="none" xmlns="http://www.w3.org/2000/svg">
<path d="M12.7969 8.64844C12.7969 9.33398 11.4766 11.9238 10.6387 11.9238C10.5371 11.9238 10.4355 11.8984 10.334 11.8223L9.49609 11.3398C9.2168 11.543 8.9375 11.7207 8.63281 11.8477V12.8125C8.63281 13.0918 8.45508 13.3457 8.17578 13.4219C7.61719 13.5742 7.05859 13.625 6.5 13.625C5.91602 13.625 5.35742 13.5742 4.82422 13.4219C4.54492 13.3457 4.3418 13.0918 4.3418 12.8125V11.8477C4.03711 11.7207 3.75781 11.543 3.47852 11.3398L2.64062 11.8223C2.56445 11.8984 2.4375 11.9238 2.33594 11.9238C1.44727 11.9238 0.203125 9.20703 0.203125 8.64844C0.203125 8.44531 0.304688 8.24219 0.507812 8.11523L1.3457 7.63281C1.32031 7.48047 1.32031 7.30273 1.32031 7.125C1.32031 6.97266 1.32031 6.79492 1.3457 6.64258L0.507812 6.16016C0.304688 6.0332 0.203125 5.83008 0.203125 5.62695C0.203125 4.94141 1.52344 2.35156 2.33594 2.35156C2.4375 2.35156 2.56445 2.37695 2.64062 2.45312L3.47852 2.93555C3.75781 2.73242 4.03711 2.55469 4.3418 2.42773V1.46289C4.3418 1.18359 4.54492 0.929688 4.82422 0.853516C5.35742 0.701172 5.91602 0.625 6.5 0.625C7.05859 0.625 7.61719 0.701172 8.17578 0.853516C8.45508 0.929688 8.63281 1.18359 8.63281 1.46289V2.42773C8.9375 2.55469 9.2168 2.73242 9.49609 2.93555L10.334 2.45312C10.4355 2.37695 10.5371 2.35156 10.6387 2.35156C11.5273 2.35156 12.7969 5.06836 12.7969 5.62695C12.7969 5.83008 12.6699 6.0332 12.4668 6.16016L11.6289 6.64258C11.6543 6.79492 11.6543 6.97266 11.6543 7.125C11.6543 7.30273 11.6543 7.48047 11.6289 7.63281L12.4668 8.11523C12.6699 8.24219 12.7969 8.44531 12.7969 8.64844ZM10.5371 10.5273C10.9434 10.0703 11.248 9.51172 11.4512 8.92773C10.918 8.62305 11.1719 8.77539 10.3594 8.29297C10.4102 7.6582 10.4355 7.37891 10.4355 7.125C10.4355 6.87109 10.4102 6.61719 10.3594 5.98242C11.1465 5.5 10.918 5.65234 11.4512 5.34766C11.248 4.76367 10.9434 4.20508 10.5371 3.74805C10.0039 4.05273 10.2832 3.875 9.41992 4.38281C8.35352 3.5957 8.60742 3.74805 7.41406 3.21484V1.94531C7.21094 1.89453 6.88086 1.84375 6.5 1.84375C6.2207 1.84375 5.91602 1.86914 5.56055 1.94531V3.21484C4.36719 3.74805 4.62109 3.5957 3.55469 4.38281C2.74219 3.90039 3.04688 4.07812 2.4375 3.74805C2.05664 4.20508 1.72656 4.76367 1.52344 5.34766C2.05664 5.65234 1.82812 5.5 2.64062 5.98242C2.56445 6.61719 2.53906 6.89648 2.53906 7.15039C2.53906 7.4043 2.56445 7.6582 2.64062 8.29297C1.82812 8.77539 2.05664 8.62305 1.52344 8.92773C1.72656 9.51172 2.05664 10.0703 2.4375 10.5273C2.9707 10.2227 2.74219 10.375 3.55469 9.89258C4.62109 10.6797 4.36719 10.5273 5.56055 11.0605V12.3301C5.78906 12.3809 6.09375 12.4062 6.5 12.4062C6.75391 12.4062 7.08398 12.4062 7.41406 12.3301V11.0605C8.60742 10.5273 8.35352 10.6797 9.41992 9.89258C10.2578 10.375 9.92773 10.1973 10.5371 10.5273ZM6.5 4.6875C7.8457 4.6875 8.9375 5.80469 8.9375 7.125C8.9375 8.4707 7.8457 9.5625 6.5 9.5625C5.1543 9.5625 4.0625 8.4707 4.0625 7.125C4.0625 5.80469 5.1543 4.6875 6.5 4.6875ZM6.5 8.34375C7.16016 8.34375 7.71875 7.81055 7.71875 7.125C7.71875 6.46484 7.16016 5.90625 6.5 5.90625C5.81445 5.90625 5.28125 6.46484 5.28125 7.125C5.28125 7.81055 5.81445 8.34375 6.5 8.34375Z" fill="#66738A"/>
</svg>
