<svg width="45" height="44" viewBox="0 0 45 44" fill="none" xmlns="http://www.w3.org/2000/svg">
<rect x="0.75" y="17.25" width="37.5" height="25.5" rx="3.25" fill="white" stroke="#028577" stroke-width="1.5"/>
<path d="M34.5119 13.9306C34.1974 14.2001 34.161 14.6736 34.4306 14.9881C34.7001 15.3026 35.1736 15.339 35.4881 15.0694L34.5119 13.9306ZM39.0303 2.46967C38.7374 2.17678 38.2626 2.17678 37.9697 2.46967L33.1967 7.24264C32.9038 7.53553 32.9038 8.01041 33.1967 8.3033C33.4896 8.59619 33.9645 8.59619 34.2574 8.3033L38.5 4.06066L42.7426 8.3033C43.0355 8.59619 43.5104 8.59619 43.8033 8.3033C44.0962 8.01041 44.0962 7.53553 43.8033 7.24264L39.0303 2.46967ZM35.4881 15.0694C37.2356 13.5716 38.2765 12.57 38.7825 10.835C39.0264 9.99876 39.139 9.02193 39.1946 7.78362C39.2502 6.54416 39.25 4.9933 39.25 3H37.75C37.75 5.0067 37.7498 6.51834 37.6961 7.71638C37.6423 8.91557 37.5361 9.75124 37.3425 10.415C36.9735 11.68 36.2644 12.4284 34.5119 13.9306L35.4881 15.0694Z" fill="#028577"/>
<path d="M24.7157 10.0294L24.3947 9.35158L24.7157 10.0294ZM9.67894 16.3222C9.30459 16.4995 9.14488 16.9467 9.3222 17.3211C9.49952 17.6954 9.94672 17.8551 10.3211 17.6778L9.67894 16.3222ZM29.75 17V12.7406H28.25V17H29.75ZM24.3947 9.35158L9.67894 16.3222L10.3211 17.6778L25.0368 10.7072L24.3947 9.35158ZM29.75 12.7406C29.75 9.98767 26.8826 8.17309 24.3947 9.35158L25.0368 10.7072C26.5296 10.0001 28.25 11.0888 28.25 12.7406H29.75Z" fill="#028577"/>
<path d="M24 10V7.3197C24 4.70939 20.897 3.34439 18.9728 5.10824L6 17" stroke="#028577" stroke-width="1.5"/>
<rect x="27.75" y="25.25" width="15.5" height="9.5" rx="3.25" fill="white" stroke="#028577" stroke-width="1.5"/>
<circle cx="33.5" cy="30" r="1.75" stroke="#028577" stroke-width="1.5"/>
</svg>
